# File created by Blade
# Date/Time:  Tue Jan 27 19:32:37 2015
# Frame Rate: 120.000 fps
#------------------------------------------------------
:FULLY-SPECIFIED
:DEGREES
3649
root 2.701022 32.261692 0.383812 -2.908358 -13.914836 -1.536565
Spine 3.683962 -17.874050 -2.946174
Head 17.062883 8.764627 6.555766
LeftShoulder -12.754139 0.544025 28.857916
LeftArm -5.014755 41.267839 -107.361924
LeftForeArm 3.404543 -0.000000 15.569223
LeftHand 10.289091 -0.000000 -4.853253
LeftHandThumb1 -26.253704 0.000000 33.147579
RightShoulder -28.241617 -25.217696 -34.671851
RightArm -28.433513 62.306265 39.802375
RightForeArm 10.767387 0.000000 40.948035
RightHand 26.796431 0.000000 -31.996144
RightHandThumb1 -24.326973 -0.000000 -32.862282
LeftUpLeg 14.642347 15.030321 3.051591
LeftLeg -0.265265 -0.000000 0.000000
LeftFoot -21.276774 17.653297 -25.289894
LeftToeBase 16.505794 -0.000000 -0.000000
RightUpLeg 7.491976 4.620589 5.289566
RightLeg 2.409449 -0.000000 -0.000000
RightFoot -11.993622 -13.160882 13.188032
RightToeBase 12.242589 -0.000000 -0.000000
3650
root 2.697184 32.262840 0.376437 -2.918927 -13.958922 -1.544060
Spine 3.695830 -17.843573 -2.973734
Head 17.101081 8.710934 6.531759
LeftShoulder -12.739287 0.552339 28.846827
LeftArm -5.012332 41.223176 -107.382870
LeftForeArm 3.441250 -0.000000 15.535132
LeftHand 10.376627 -0.000000 -4.905775
LeftHandThumb1 -26.253704 0.000000 33.147579
RightShoulder -28.325374 -25.239188 -34.599090
RightArm -28.611130 62.592462 39.419264
RightForeArm 10.721231 -0.000000 42.884917
RightHand 26.793988 -0.000000 -31.913615
RightHandThumb1 -24.326973 -0.000000 -32.862282
LeftUpLeg 14.641460 15.010630 3.057944
LeftLeg -0.248900 -0.000000 0.000000
LeftFoot -21.284532 17.667659 -25.343847
LeftToeBase 16.384668 -0.000000 -0.000000
RightUpLeg 7.485668 4.619439 5.302224
RightLeg 2.414612 -0.000000 -0.000000
RightFoot -11.964447 -13.125282 13.169995
RightToeBase 12.289160 -0.000000 -0.000000
3651
root 2.694191 32.263930 0.369750 -2.936862 -14.017285 -1.549429
Spine 3.711459 -17.807704 -2.995494
Head 17.149353 8.693684 6.510761
LeftShoulder -12.723803 0.560396 28.828376
LeftArm -5.021299 41.171051 -107.403259
LeftForeArm 3.447218 0.000000 15.533758
LeftHand 10.465670 -0.000000 -4.851020
LeftHandThumb1 -26.253704 0.000000 33.147579
RightShoulder -28.408537 -25.239742 -34.551210
RightArm -28.817111 62.905605 39.017952
RightForeArm 10.838840 0.000000 44.863596
RightHand 27.077639 -0.000000 -31.712383
RightHandThumb1 -24.326973 -0.000000 -32.862282
LeftUpLeg 14.659059 15.046770 3.073711
LeftLeg -0.242309 -0.000000 0.000000
LeftFoot -21.290842 17.691737 -25.362513
LeftToeBase 16.338892 -0.000000 -0.000000
RightUpLeg 7.486071 4.615031 5.310420
RightLeg 2.418442 -0.000000 -0.000000
RightFoot -11.918649 -13.086826 13.133346
RightToeBase 12.237683 -0.000000 -0.000000
3652
root 2.690569 32.264440 0.362264 -2.946893 -14.078536 -1.562092
Spine 3.723013 -17.788842 -2.994930
Head 17.178178 8.691669 6.465790
LeftShoulder -12.734935 0.586508 28.797586
LeftArm -5.010115 41.168923 -107.413780
LeftForeArm 3.423077 0.000000 15.522061
LeftHand 10.386205 -0.000000 -4.908086
LeftHandThumb1 -26.253704 0.000000 33.147579
RightShoulder -28.498192 -25.221787 -34.518668
RightArm -28.970785 63.166267 38.680967
RightForeArm 10.959618 0.000000 46.965391
RightHand 27.126892 -0.000000 -31.742239
RightHandThumb1 -24.326973 -0.000000 -32.862282
LeftUpLeg 14.666906 15.072572 3.092080
LeftLeg -0.239879 -0.000000 0.000000
LeftFoot -21.313746 17.750715 -25.346942
LeftToeBase 16.402198 -0.000000 -0.000000
RightUpLeg 7.485840 4.632445 5.329235
RightLeg 2.408535 -0.000000 -0.000000
RightFoot -11.878856 -13.060539 13.115501
RightToeBase 12.261434 -0.000000 -0.000000
3653
root 2.687350 32.265092 0.355141 -2.958146 -14.137786 -1.571483
Spine 3.730488 -17.783186 -2.995910
Head 17.226602 8.702414 6.401222
LeftShoulder -12.750215 0.567733 28.775057
LeftArm -5.070130 41.184476 -107.470600
LeftForeArm 3.412522 -0.000000 15.513360
LeftHand 10.395026 -0.000000 -4.858286
LeftHandThumb1 -26.253704 0.000000 33.147579
RightShoulder -28.567336 -25.201424 -34.482954
RightArm -29.153496 63.450798 38.316397
RightForeArm 11.106809 0.000000 49.158840
RightHand 27.263859 -0.000000 -31.831566
RightHandThumb1 -24.326973 -0.000000 -32.862282
LeftUpLeg 14.674224 15.080146 3.103519
LeftLeg -0.227337 -0.000000 0.000000
LeftFoot -21.329253 17.768989 -25.375185
LeftToeBase 16.348368 -0.000000 -0.000000
RightUpLeg 7.480526 4.628572 5.340383
RightLeg 2.410393 -0.000000 -0.000000
RightFoot -11.834803 -13.016452 13.081870
RightToeBase 12.224866 -0.000000 -0.000000
3654
root 2.684676 32.266148 0.347654 -2.974184 -14.214709 -1.577222
Spine 3.723052 -17.784974 -2.997170
Head 17.333740 8.747704 6.349436
LeftShoulder -12.753403 0.581525 28.750577
LeftArm -5.110676 41.183184 -107.507100
LeftForeArm 3.377699 -0.000000 15.520796
LeftHand 10.358235 -0.000000 -4.868979
LeftHandThumb1 -26.253704 0.000000 33.147579
RightShoulder -28.587567 -25.203043 -34.477602
RightArm -29.332422 63.726989 37.997957
RightForeArm 11.304845 -0.000000 51.458160
RightHand 27.240214 -0.000000 -31.794159
RightHandThumb1 -24.326973 -0.000000 -32.862282
LeftUpLeg 14.695094 15.141410 3.123035
LeftLeg -0.227777 -0.000000 0.000000
LeftFoot -21.324020 17.784172 -25.374707
LeftToeBase 16.400059 -0.000000 -0.000000
RightUpLeg 7.472742 4.644020 5.349536
RightLeg 2.422810 -0.000000 -0.000000
RightFoot -11.810835 -12.971487 13.091323
RightToeBase 12.272166 -0.000000 -0.000000
3655
root 2.681453 32.267104 0.340958 -2.991252 -14.291397 -1.585612
Spine 3.720582 -17.777236 -2.994055
Head 17.422196 8.785072 6.310266
LeftShoulder -12.768849 0.646744 28.714642
LeftArm -5.077137 41.208979 -107.491731
LeftForeArm 3.378085 -0.000000 15.527039
LeftHand 10.347724 -0.000000 -4.928333
LeftHandThumb1 -26.253704 0.000000 33.147579
RightShoulder -28.656468 -25.253654 -34.450279
RightArm -29.405398 64.060299 37.787832
RightForeArm 11.375591 -0.000000 53.817638
RightHand 27.166583 -0.000000 -31.666344
RightHandThumb1 -24.326973 -0.000000 -32.862282
LeftUpLeg 14.716895 15.162415 3.135623
LeftLeg -0.230001 -0.000000 0.000000
LeftFoot -21.356758 17.849384 -25.388970
LeftToeBase 16.445287 -0.000000 -0.000000
RightUpLeg 7.472787 4.680535 5.365275
RightLeg 2.429406 -0.000000 -0.000000
RightFoot -11.783865 -12.938482 13.078278
RightToeBase 12.339234 -0.000000 -0.000000
3656
root 2.677089 32.267862 0.333765 -3.018859 -14.369863 -1.599591
Spine 3.728966 -17.733090 -2.992233
Head 17.523423 8.774477 6.280584
LeftShoulder -12.729563 0.663460 28.691358
LeftArm -5.091118 41.187934 -107.496042
LeftForeArm 3.307697 -0.000000 15.557422
LeftHand 10.476416 -0.000000 -5.340618
LeftHandThumb1 -26.253704 0.000000 33.147579
RightShoulder -28.744077 -25.312690 -34.386332
RightArm -29.544953 64.453812 37.503739
RightForeArm 11.448293 -0.000000 56.235277
RightHand 27.390794 0.000000 -31.303525
RightHandThumb1 -24.326973 -0.000000 -32.862282
LeftUpLeg 14.746441 15.186669 3.161551
LeftLeg -0.216648 -0.000000 0.000000
LeftFoot -21.365552 17.868157 -25.420689
LeftToeBase 16.353859 -0.000000 -0.000000
RightUpLeg 7.493738 4.780409 5.393130
RightLeg 2.414882 -0.000000 -0.000000
RightFoot -11.746946 -12.955998 13.102146
RightToeBase 12.319113 -0.000000 -0.000000
3657
root 2.673462 32.269033 0.326982 -3.039599 -14.439907 -1.610075
Spine 3.734824 -17.711924 -2.989615
Head 17.601053 8.786729 6.243964
LeftShoulder -12.726468 0.637494 28.678599
LeftArm -5.168835 41.223755 -107.550736
LeftForeArm 3.353400 -0.000000 15.582751
LeftHand 10.517828 -0.000000 -5.254407
LeftHandThumb1 -26.253704 0.000000 33.147579
RightShoulder -28.812482 -25.346435 -34.329108
RightArm -29.726702 64.765016 37.158963
RightForeArm 11.626702 -0.000000 58.668653
RightHand 27.727709 -0.000000 -30.799336
RightHandThumb1 -24.326973 -0.000000 -32.862282
LeftUpLeg 14.771588 15.218571 3.183275
LeftLeg -0.218163 -0.000000 0.000000
LeftFoot -21.380574 17.904111 -25.424269
LeftToeBase 16.384926 -0.000000 -0.000000
RightUpLeg 7.494264 4.780820 5.404086
RightLeg 2.428729 -0.000000 -0.000000
RightFoot -11.714746 -12.876025 13.101302
RightToeBase 12.316356 -0.000000 -0.000000
3658
root 2.671330 32.269474 0.320869 -3.058294 -14.511868 -1.615822
Spine 3.737573 -17.682875 -2.963809
Head 17.652414 8.837867 6.184274
LeftShoulder -12.728917 0.629627 28.634478
LeftArm -5.207751 41.268717 -107.575174
LeftForeArm 3.305568 0.000000 15.607136
LeftHand 10.435147 -0.000000 -5.362224
LeftHandThumb1 -26.253704 0.000000 33.147579
RightShoulder -28.928520 -25.387594 -34.281669
RightArm -29.729917 64.993195 36.991256
RightForeArm 11.556494 -0.000000 61.196447
RightHand 27.522502 0.000000 -30.803070
RightHandThumb1 -24.326973 -0.000000 -32.862282
LeftUpLeg 14.795868 15.211487 3.184401
LeftLeg -0.224002 -0.000000 0.000000
LeftFoot -21.388235 17.965462 -25.452594
LeftToeBase 16.311047 -0.000000 -0.000000
RightUpLeg 7.494748 4.814565 5.418849
RightLeg 2.436823 -0.000000 -0.000000
RightFoot -11.687195 -12.875763 13.074876
RightToeBase 12.308347 -0.000000 -0.000000
